<svg xmlns="http://www.w3.org/2000/svg" xmlns:xlink="http://www.w3.org/1999/xlink" width="200" height="200" viewBox="0 0 200 200" fill="none"><path     fill="#F7934F"  d="M122.592 144.141C129.835 137.425 136.188 129.959 140.841 122.253C152.217 105.192 160.748 80.6405 122.831 61.0055C122.831 61.0055 77.3323 25.5717 57.7468 63.4805C38.1613 101.389 32.1553 156.689 52.6895 169.328C64.8005 176.778 86.5805 170.169 106.364 156.945"></path><path d="M132.591 66.8465C132.879 81.614 131.089 114.441 111.264 133.168C85.1286 157.852 60.4363 174.633 42.872 155.501C44.9593 161.738 48.185 166.564 52.6895 169.336C64.8006 176.786 86.5806 170.178 106.364 156.953L122.592 144.149C129.835 137.434 136.188 129.967 140.841 122.262C151.112 106.843 159.057 85.3349 132.591 66.8465Z"   fill="#E8823D" ></path><path d="M65.2048 174.946C60.0898 174.946 55.3789 173.89 51.386 171.432C40.9744 165.021 36.1069 148.785 37.691 125.71C39.1182 104.895 45.7925 81.2014 55.5357 62.3419C60.6837 52.3842 68.018 46.2956 77.3405 44.2497C98.1964 39.671 121.659 56.996 124.159 58.9017C139.735 67.0114 149.091 76.8042 151.986 88.0076C154.734 98.6585 151.772 110.291 142.928 123.574C138.349 131.147 131.898 138.885 124.266 145.956C123.268 146.888 121.701 146.822 120.769 145.824C119.836 144.825 119.902 143.258 120.9 142.326C128.21 135.552 134.364 128.169 138.712 120.975C138.729 120.942 138.754 120.909 138.77 120.884C146.814 108.822 149.561 98.4769 147.185 89.2535C144.66 79.4194 136.08 70.6498 121.692 63.1999C121.56 63.1339 121.429 63.0514 121.313 62.9524C121.082 62.771 97.7262 44.8355 78.3964 49.0842C70.5837 50.8001 64.3798 56.0306 59.9412 64.6107C41.1889 100.911 34.7539 155.377 53.9848 167.216C64.2807 173.552 84.3035 168.709 104.986 154.882C106.125 154.123 107.659 154.428 108.418 155.567C109.177 156.705 108.872 158.24 107.734 158.999C94.88 167.595 78.6687 174.946 65.2048 174.946Z"   fill="#000F04" ></path><path d="M130.52 40.0836C130.52 40.0836 112.824 25.7037 109.507 26.6525C106.191 27.6012 99.0793 41.0323 101.447 53.036C103.815 65.0398 109.821 70.5755 114.243 72.1512C118.665 73.7269 123.565 73.5702 129.885 72.1512C136.204 70.7323 145.403 71.5902 147.045 74.0652C148.686 76.532 157.06 65.9968 148.208 54.9335C139.356 43.8702 130.52 40.0836 130.52 40.0836Z"   fill="#BFE5BD" ></path><path d="M114.243 72.1513C118.665 73.727 123.565 73.5702 129.885 72.1513C136.204 70.7324 145.403 71.5902 147.045 74.0652C148.266 75.9051 153.232 70.5095 152.011 63.0515C147.779 59.702 126.593 63.0515 126.593 63.0515C126.593 63.0515 118.648 62.2183 114.383 57.6313C109.095 55.2636 105.836 30.5795 105.836 30.5465C102.767 35.5873 99.8052 44.6539 101.455 53.0361C103.815 65.0399 109.821 70.5756 114.243 72.1513Z"   fill="#A2DD9E" ></path><path d="M147.713 76.9032C146.607 76.9032 145.601 76.367 144.982 75.4348C143.943 74.3457 136.501 73.2073 130.429 74.5686C123.309 76.1689 118.062 76.1443 113.418 74.4861C110.827 73.562 102.14 69.3214 99.0215 53.5227C96.5713 41.1065 103.543 25.7945 108.823 24.2848C110.456 23.8228 112.873 23.9548 122.699 31.0168C126.948 34.0693 130.817 37.163 131.832 37.9714C133.606 38.8048 141.88 43.0618 150.147 53.3989C156.837 61.7645 154.363 69.4618 153.447 71.615C152.424 74.0239 150.469 76.6723 148.035 76.895C147.928 76.895 147.82 76.9032 147.713 76.9032ZM136.674 68.9998C141.022 68.9998 145.452 69.7257 147.861 71.4418C148.406 70.757 149.132 69.4948 149.503 67.688C150.039 65.0811 149.916 61.022 146.277 56.4845C137.978 46.1061 129.621 42.3936 129.538 42.3605C129.332 42.2698 129.134 42.1543 128.961 42.0057C121.684 36.0988 112.551 29.6638 110.052 29.1193C107.882 30.5548 101.81 42.0636 103.889 52.5575C105.968 63.0763 111.034 68.3727 115.093 69.8248C118.854 71.1695 123.12 71.1448 129.357 69.7423C131.444 69.2638 134.043 68.9998 136.674 68.9998Z"   fill="#000F04" ></path><path d="M135.891 29.342C135.891 29.342 118.986 34.3993 115.984 46.8814C112.981 59.3638 109.351 68.8348 113.459 71.8377C117.568 74.8407 126.89 65.84 133.523 62.9938C140.156 60.1475 150.114 55.2552 157.06 56.3607C159.75 56.9961 160.22 50.5114 155.163 43.7218C150.105 36.9238 143.91 25.7285 135.891 29.342Z"   fill="#BFE5BD" ></path><path d="M157.06 56.3525C159.75 56.9877 160.22 50.5032 155.163 43.7135C154.709 43.103 154.239 42.4512 153.769 41.783C144.924 42.4843 126.643 46.9805 112.37 70.5673C112.651 71.0623 112.997 71.4912 113.459 71.8294C117.568 74.8325 126.89 65.8317 133.523 62.9855C140.156 60.1475 150.106 55.2469 157.06 56.3525L157.06 56.3525Z"   fill="#A2DD9E" ></path><path d="M115.447 74.9398C114.21 74.9398 113.055 74.6098 111.999 73.8343C107.313 70.4024 109.227 63.1093 111.867 53.0195C112.428 50.8745 113.014 48.647 113.574 46.304C116.742 33.1205 133.111 27.626 135.016 27.0237C143.72 23.2452 150.246 32.51 155.022 39.2914C155.749 40.3227 156.458 41.3293 157.143 42.245C161.21 47.7065 162.654 53.96 160.583 57.1115C159.684 58.4811 158.166 59.1163 156.598 58.7945C151.153 57.9777 142.911 61.5831 136.881 64.2231C136.047 64.5861 135.247 64.9408 134.488 65.2625C132.442 66.137 129.934 67.7788 127.509 69.3627C123.161 72.209 118.986 74.9398 115.447 74.9398L115.447 74.9398ZM136.6 31.7097C136.386 31.7758 121.016 36.5525 118.392 47.4508C117.815 49.8433 117.229 52.0956 116.66 54.2652C114.837 61.2118 112.956 68.3975 114.919 69.8331C116.256 70.8065 121.816 67.1765 124.811 65.2213C127.41 63.5218 130.107 61.7645 132.549 60.7168C133.292 60.395 134.084 60.0486 134.909 59.6938C141.591 56.765 149.833 53.1433 156.565 53.8033C156.656 52.4256 156.136 49.1668 153.183 45.1986C152.473 44.2499 151.739 43.2102 150.988 42.1377C145.873 34.8777 141.591 29.4988 136.914 31.6025C136.806 31.6438 136.699 31.6768 136.6 31.7098L136.6 31.7097ZM55.5357 120.859C55.3625 120.859 55.1893 120.843 55.016 120.801C54.9764 120.793 54.937 120.784 54.8979 120.773C54.8588 120.763 54.82 120.751 54.7814 120.739C54.7429 120.727 54.7046 120.714 54.6667 120.699C54.6288 120.685 54.5912 120.67 54.5541 120.654C54.5169 120.638 54.4802 120.621 54.4439 120.603C54.4076 120.585 54.3717 120.567 54.3362 120.547C54.3009 120.527 54.266 120.507 54.2315 120.486C54.1971 120.464 54.1633 120.442 54.13 120.419C54.0967 120.396 54.064 120.372 54.0318 120.348C53.9997 120.323 53.9682 120.298 53.9373 120.272C53.9063 120.246 53.8761 120.219 53.8465 120.191C53.817 120.163 53.7881 120.135 53.7598 120.106C53.7317 120.077 53.7043 120.047 53.6775 120.017C53.6508 119.986 53.6248 119.955 53.5997 119.924C53.5744 119.892 53.5501 119.86 53.5265 119.827C53.5029 119.794 53.4801 119.761 53.458 119.727C53.4361 119.693 53.415 119.658 53.3947 119.623C53.3745 119.588 53.3551 119.552 53.3366 119.516C53.3181 119.48 53.3005 119.444 53.2837 119.407C53.2669 119.37 53.2511 119.333 53.2362 119.296C53.2213 119.258 53.2074 119.22 53.1943 119.182C53.1813 119.143 53.1692 119.105 53.158 119.066C53.147 119.027 53.1368 118.988 53.1276 118.948C53.1183 118.909 53.1101 118.869 53.1029 118.829C53.0956 118.789 53.0893 118.749 53.0841 118.709C53.0787 118.669 53.0744 118.629 53.0712 118.589C53.0678 118.548 53.0655 118.508 53.0641 118.468C53.0628 118.427 53.0625 118.387 53.0631 118.346C53.0638 118.306 53.0654 118.265 53.0681 118.225C53.0707 118.185 53.0743 118.144 53.0789 118.104C53.0835 118.064 53.0892 118.024 53.0958 117.984C53.1024 117.944 53.1099 117.904 53.1185 117.865C55.5357 106.595 58.3655 96.4888 61.5335 87.8345C61.5474 87.7965 61.5622 87.7588 61.5779 87.7214C61.5935 87.684 61.6102 87.6469 61.6278 87.6104C61.6453 87.5738 61.6637 87.5377 61.6831 87.5021C61.7024 87.4663 61.7226 87.4312 61.7437 87.3967C61.7647 87.3619 61.7866 87.3279 61.8092 87.2944C61.832 87.2607 61.8555 87.2277 61.8798 87.1953C61.9042 87.1627 61.9293 87.131 61.9552 87.0999C61.9811 87.0686 62.0078 87.0382 62.0353 87.0082C62.0627 86.9782 62.0908 86.9491 62.1196 86.9207C62.1485 86.8922 62.178 86.8645 62.2082 86.8374C62.2384 86.8103 62.2692 86.7841 62.3007 86.7586C62.3323 86.733 62.3644 86.7082 62.3971 86.6843C62.4298 86.6603 62.4631 86.6371 62.497 86.6149C62.5308 86.5927 62.5652 86.5712 62.6001 86.5506C62.635 86.53 62.6704 86.5102 62.7063 86.4913C62.7421 86.4723 62.7785 86.4544 62.8154 86.4373C62.8521 86.4202 62.8893 86.404 62.9269 86.3888C62.9644 86.3735 63.0022 86.3592 63.0405 86.3458C63.0788 86.3323 63.1174 86.3199 63.1563 86.3084C63.1952 86.2968 63.2343 86.2863 63.2736 86.2768C63.313 86.2672 63.3527 86.2586 63.3925 86.2511C63.4324 86.2433 63.4723 86.2366 63.5124 86.2311C63.5526 86.2253 63.5929 86.2206 63.6333 86.2171C63.6737 86.2132 63.7141 86.2104 63.7546 86.2088C63.7951 86.2072 63.8356 86.2064 63.8763 86.2067C63.9167 86.2071 63.9573 86.2084 63.9977 86.2106C64.0382 86.2129 64.0786 86.2162 64.1189 86.2204C64.1592 86.2246 64.1994 86.2299 64.2394 86.2362C64.2795 86.2424 64.3194 86.2496 64.3592 86.258C64.3989 86.266 64.4384 86.2752 64.4776 86.2855C64.5168 86.2955 64.5558 86.3066 64.5946 86.3187C64.6333 86.3308 64.6717 86.3439 64.7098 86.3577C65.9968 86.8281 66.6568 88.247 66.1864 89.534C63.101 97.9738 60.3373 107.857 57.9694 118.904C57.9617 118.938 57.9532 118.972 57.944 119.006C57.9348 119.04 57.9248 119.074 57.9142 119.107C57.9035 119.141 57.8923 119.174 57.8803 119.207C57.8683 119.24 57.8556 119.272 57.8421 119.305C57.8287 119.337 57.8146 119.369 57.7999 119.401C57.7852 119.433 57.7699 119.465 57.7538 119.496C57.7377 119.527 57.721 119.558 57.7037 119.588C57.6863 119.619 57.6683 119.649 57.6498 119.679C57.6312 119.709 57.6119 119.738 57.5921 119.767C57.5723 119.796 57.5519 119.824 57.5308 119.852C57.5098 119.88 57.4881 119.908 57.4659 119.935C57.4438 119.962 57.4211 119.989 57.3977 120.015C57.3744 120.042 57.3506 120.068 57.3262 120.093C57.3018 120.118 57.2769 120.143 57.2514 120.167C57.2261 120.191 57.2002 120.215 57.1738 120.238C57.1473 120.261 57.1204 120.283 57.093 120.306C57.0657 120.327 57.0378 120.349 57.0096 120.37C56.9813 120.39 56.9526 120.411 56.9235 120.43C56.8945 120.45 56.865 120.469 56.8351 120.487C56.8052 120.506 56.775 120.523 56.7444 120.54C56.7136 120.558 56.6826 120.574 56.6514 120.59C56.62 120.606 56.5884 120.621 56.5565 120.635C56.5245 120.65 56.4922 120.664 56.4596 120.677C56.4271 120.69 56.3943 120.702 56.3612 120.714C56.3282 120.726 56.2949 120.737 56.2613 120.747C56.2278 120.758 56.194 120.767 56.1601 120.776C56.1262 120.785 56.0921 120.793 56.0578 120.801C56.0235 120.808 55.9891 120.815 55.9546 120.821C55.92 120.827 55.8854 120.833 55.8505 120.837C55.8157 120.842 55.7809 120.846 55.746 120.849C55.711 120.852 55.6759 120.855 55.6409 120.856C55.6059 120.858 55.5708 120.859 55.5357 120.859ZM67.391 82.472C67.3394 82.4718 67.2878 82.4701 67.2362 82.4669C67.1846 82.4633 67.1332 82.4583 67.082 82.4519C67.0307 82.4453 66.9798 82.437 66.9291 82.4274C66.8784 82.4177 66.828 82.4064 66.7779 82.3935C66.7279 82.3805 66.6783 82.366 66.6292 82.3502C66.5801 82.3341 66.5316 82.3167 66.4835 82.2977C66.4355 82.2786 66.3881 82.258 66.3413 82.2361C66.2945 82.2142 66.2486 82.1907 66.2033 82.1659C66.158 82.141 66.1135 82.1148 66.0699 82.0872C66.0262 82.0595 65.9834 82.0307 65.9417 82.0004C65.8998 81.9701 65.8589 81.9385 65.819 81.9056C65.7792 81.8728 65.7403 81.8386 65.7025 81.8035C65.6648 81.7682 65.6283 81.7318 65.5928 81.6942C65.5574 81.6567 65.5231 81.618 65.49 81.5784C65.4569 81.5387 65.4251 81.498 65.3946 81.4564C65.364 81.4147 65.3348 81.3721 65.3069 81.3286C65.2791 81.2851 65.2526 81.2408 65.2275 81.1957C65.2024 81.1506 65.1787 81.1046 65.1564 81.0581C65.1342 81.0113 65.1134 80.9641 65.0941 80.9163C65.0749 80.8683 65.0571 80.8197 65.0408 80.7708C65.0245 80.7218 65.0098 80.6723 64.9966 80.6224C64.9835 80.5724 64.9719 80.522 64.9618 80.4714C64.9518 80.4208 64.9434 80.3699 64.9365 80.3186C64.9296 80.2674 64.9244 80.216 64.9207 80.1646C64.9171 80.113 64.915 80.0613 64.9146 80.0097C64.9142 79.958 64.9153 79.9064 64.9181 79.8549C64.9209 79.8033 64.9253 79.7518 64.9312 79.7005C64.9372 79.6493 64.9448 79.5982 64.9541 79.5473C64.9632 79.4964 64.9739 79.4459 64.9863 79.3958C64.9987 79.3456 65.0126 79.2959 65.028 79.2466C65.0434 79.1973 65.0603 79.1486 65.0788 79.1003C65.0973 79.052 65.1172 79.0044 65.1387 78.9575C66.2525 76.5402 66.9455 75.3524 66.9785 75.3027C66.999 75.2678 67.0203 75.2333 67.0425 75.1993C67.0646 75.1653 67.0876 75.1319 67.1115 75.0992C67.1353 75.0663 67.16 75.0341 67.1854 75.0025C67.2109 74.9709 67.237 74.94 67.2639 74.9097C67.2909 74.8794 67.3186 74.8498 67.3471 74.8208C67.3754 74.7918 67.4045 74.7636 67.4344 74.7362C67.4641 74.7085 67.4946 74.6817 67.5257 74.6558C67.5569 74.6297 67.5886 74.6045 67.621 74.5802C67.6533 74.5557 67.6863 74.532 67.7199 74.5093C67.7534 74.4864 67.7875 74.4644 67.8221 74.4432C67.8567 74.4221 67.8918 74.4018 67.9275 74.3825C67.963 74.363 67.999 74.3445 68.0356 74.3269C68.0721 74.3092 68.109 74.2926 68.1464 74.2768C68.1838 74.261 68.2215 74.246 68.2595 74.2322C68.2977 74.2181 68.3361 74.2051 68.3749 74.1932C68.4136 74.1811 68.4526 74.17 68.4919 74.1598C68.5311 74.1497 68.5706 74.1405 68.6103 74.1324C68.6501 74.1242 68.69 74.1169 68.7301 74.1108C68.7701 74.1045 68.8103 74.0994 68.8507 74.0952C68.891 74.0908 68.9314 74.0876 68.9719 74.0854C69.0124 74.0831 69.053 74.082 69.0936 74.0817C69.1342 74.0813 69.1747 74.0821 69.2152 74.0841C69.2557 74.0857 69.2961 74.0884 69.3366 74.0923C69.377 74.096 69.4173 74.1007 69.4574 74.1065C69.4975 74.1123 69.5375 74.119 69.5773 74.1268C69.6171 74.1344 69.6567 74.1431 69.6962 74.1527C69.7355 74.1624 69.7747 74.173 69.8135 74.1846C69.8523 74.1962 69.891 74.2088 69.9292 74.2223C69.9674 74.2357 70.0054 74.2502 70.043 74.2657C70.0805 74.281 70.1176 74.2973 70.1543 74.3145C70.191 74.3316 70.2273 74.3498 70.2632 74.3688C70.299 74.3876 70.3343 74.4075 70.3693 74.4283C71.5489 75.1213 71.9368 76.6393 71.2519 77.8108C71.2437 77.819 70.6332 78.8668 69.635 81.0283C69.6108 81.0818 69.5847 81.1344 69.5567 81.1862C69.5286 81.2379 69.4988 81.2885 69.4672 81.3381C69.4355 81.3876 69.4021 81.4359 69.3672 81.4833C69.332 81.5303 69.2953 81.5763 69.2568 81.6207C69.2184 81.6652 69.1785 81.7084 69.1369 81.75C69.0955 81.7915 69.0525 81.8317 69.0082 81.8703C68.9638 81.9088 68.9181 81.9457 68.871 81.981C68.824 82.0163 68.7758 82.0498 68.7263 82.0817C68.6769 82.1135 68.6264 82.1435 68.5747 82.1718C68.5232 82.1999 68.4706 82.2261 68.4171 82.2506C68.3636 82.2749 68.3093 82.2973 68.2542 82.318C68.1991 82.3384 68.1433 82.357 68.0868 82.3736C68.0304 82.39 67.9735 82.4043 67.916 82.4169C67.8585 82.4291 67.8007 82.4395 67.7425 82.4478C67.6843 82.4561 67.6258 82.4622 67.5672 82.4662C67.5085 82.4702 67.4498 82.4722 67.391 82.472Z"   fill="#000F04" ></path></svg>